<svg xmlns="http://www.w3.org/2000/svg" version="1.1" xmlns:xlink="http://www.w3.org/1999/xlink" xmlns:svgjs="http://svgjs.dev/svgjs" width="1440" height="560" preserveAspectRatio="none" viewBox="0 0 1440 560"><g mask="url(&quot;#SvgjsMask1001&quot;)" fill="none"><path d="M764.28 577.12C893.51 572.63 973.23 382.7 1238.04 369.54 1502.84 356.38 1575.92 109.89 1711.79 100.74" stroke="rgba(51,121,194,0.58)" stroke-width="2"></path><path d="M568.01 656.05C709.49 641.63 769.55 355.66 1039.53 337.82 1309.51 319.98 1381.81 129.87 1511.05 125.02" stroke="rgba(51,121,194,0.58)" stroke-width="2"></path><path d="M231.9 561.31C410.81 554.8 535.07 278.62 885.96 269.71 1236.85 260.8 1367.65 54.17 1540.02 51.31" stroke="rgba(51,121,194,0.58)" stroke-width="2"></path><path d="M237.4 651.11C429.51 621.67 532.72 162.89 841.28 161.51 1149.85 160.13 1283.2 392.61 1445.17 396.71" stroke="rgba(51,121,194,0.58)" stroke-width="2"></path><path d="M202.98 648.65C362.31 593.93 386.71 138.62 626.61 124.61 866.52 110.6 838.43 194.61 1050.25 194.61 1262.06 194.61 1366.54 124.85 1473.88 124.61" stroke="rgba(51,121,194,0.58)" stroke-width="2"></path></g><defs><mask id="SvgjsMask1001"><rect width="1440" height="560" fill="#ffffff"></rect></mask></defs></svg>