<svg xmlns="http://www.w3.org/2000/svg" version="1.1" xmlns:xlink="http://www.w3.org/1999/xlink" xmlns:svgjs="http://svgjs.dev/svgjs" width="1440" height="560" preserveAspectRatio="none" viewBox="0 0 1440 560"><g mask="url(&quot;#SvgjsMask1061&quot;)" fill="none"><rect width="1440" height="560" x="0" y="0" fill="rgba(186, 196, 223, 1)"></rect><path d="M0,549.663C101.154,538.657,150.98,422.504,231.795,360.68C304.137,305.339,395.744,278.689,449.923,205.473C511.748,121.924,570.68,22.93,558.069,-80.238C545.408,-183.815,466.616,-268.945,384.12,-332.842C310.18,-390.112,214.427,-399.8,122.598,-417.53C39.192,-433.634,-44.589,-453.266,-126.691,-431.469C-210.042,-409.341,-277.619,-354.139,-340.095,-294.694C-408.156,-229.934,-473.027,-161.16,-503.998,-72.464C-539.217,28.396,-573.819,144.645,-527.045,240.693C-480.375,336.526,-358.607,361.007,-266.65,414.915C-178.961,466.321,-101.05,560.658,0,549.663" fill="#8294c5"></path><path d="M1440 1166.0549999999998C1559.454 1185.223 1688.833 1170.9650000000001 1790.338 1105.137 1891.691 1039.408 1943.685 922.663 1988.367 810.431 2031.3020000000001 702.588 2067.467 586.677 2041.819 473.471 2016.989 363.875 1913.489 297.273 1850.952 203.90800000000002 1777.109 93.66300000000001 1769.925-93.10500000000002 1641.08-124.81600000000003 1510.419-156.97400000000005 1417.759 11.412000000000035 1295.285 67.14699999999999 1195.74 112.44799999999998 1072.219 97.67899999999997 991.063 170.99400000000003 906 247.839 853.604 360.10900000000004 844.502 474.38 835.645 585.582 885.459 691.26 941.962 787.446 994.2339999999999 876.429 1073.005 940.761 1155.162 1003.217 1244.027 1070.772 1329.783 1148.37 1440 1166.0549999999998" fill="#f2f4f9"></path></g><defs><mask id="SvgjsMask1061"><rect width="1440" height="560" fill="#ffffff"></rect></mask></defs></svg>