<svg xmlns="http://www.w3.org/2000/svg" version="1.1" xmlns:xlink="http://www.w3.org/1999/xlink" xmlns:svgjs="http://svgjs.dev/svgjs" width="1440" height="560" preserveAspectRatio="none" viewBox="0 0 1440 560"><g mask="url(&quot;#SvgjsMask1000&quot;)" fill="none"><rect width="1440" height="560" x="0" y="0" fill="#0e2a47"></rect><path d="M 0,275 C 57.6,233.2 172.8,81.4 288,66 C 403.2,50.6 460.8,190.8 576,198 C 691.2,205.2 748.8,106.8 864,102 C 979.2,97.2 1036.8,168.2 1152,174 C 1267.2,179.8 1382.4,139.6 1440,131L1440 560L0 560z" fill="#184a7e"></path><path d="M 0,324 C 96,370.2 288,549.2 480,555 C 672,560.8 768,360.2 960,353 C 1152,345.8 1344,485.8 1440,519L1440 560L0 560z" fill="#2264ab"></path></g><defs><mask id="SvgjsMask1000"><rect width="1440" height="560" fill="#ffffff"></rect></mask></defs></svg>