<svg id="visual" viewBox="0 0 900 600" width="900" height="600" xmlns="http://www.w3.org/2000/svg" xmlns:xlink="http://www.w3.org/1999/xlink" version="1.1"><rect x="0" y="0" width="900" height="600" fill="#002233"></rect><path d="M320 0L315.7 14.3C311.3 28.7 302.7 57.3 294 85.8C285.3 114.3 276.7 142.7 268.2 171.2C259.7 199.7 251.3 228.3 237.2 257C223 285.7 203 314.3 194.2 343C185.3 371.7 187.7 400.3 205.8 428.8C224 457.3 258 485.7 269.8 514.2C281.7 542.7 271.3 571.3 266.2 585.7L261 600L0 600L0 585.7C0 571.3 0 542.7 0 514.2C0 485.7 0 457.3 0 428.8C0 400.3 0 371.7 0 343C0 314.3 0 285.7 0 257C0 228.3 0 199.7 0 171.2C0 142.7 0 114.3 0 85.8C0 57.3 0 28.7 0 14.3L0 0Z" fill="#0066FF" stroke-linecap="round" stroke-linejoin="miter"></path></svg>